<?xml version="1.0" encoding="UTF-8" standalone="no"?>
<svg xmlns="http://www.w3.org/2000/svg" width="180" height="260" viewBox="0 0 180 260" version="1.1">
	<defs>
		<marker orient="auto" refY="0.0" refX="0.0" id="arrow" style="overflow:visible;">
			<path d="M 0.0,0.0 L 5.0,-5.0 L -12.5,0.0 L 5.0,5.0 L 0.0,0.0 z " transform="scale(0.8) rotate(180) translate(12.5,0)" />
		</marker>
		<style>
			circle, rect, polyline {
				fill: none;
				stroke: #000000;
			}
			path {
				fill: #000000;
				stroke: none;
			}
			text, tspan {
				font-size:15px;
				font-family:sans-serif;
				fill:#000000;
				stroke:none;
			}
		</style>
	</defs>
	<g id="Vcc" transform="translate(94, 0)">
		<circle cx="20" cy="30" r="4" />
		<text x="0" y="20">
			<tspan>3.3V</tspan>
		</text>
	</g>
	<polyline points="110,30 28,30 28,45" />
	<g id="R1">
		<rect width="16" height="50" x="20" y="45" />
		<text x="46" y="76">
			<tspan>R1 (minResistance)</tspan>
		</text>
	</g>
	<polyline points="28,95 28,110" />
	<g id="Sensor">
		<rect width="16" height="50" x="20" y="110" />
		<polyline points="70,136 38,136" marker-end="url(#arrow)" />
		<text x="46" y="125">
			<tspan>Sensor</tspan>
		</text>
	</g>
	<polyline points="28,160 28,210" />
	<g id="C1">
		<polyline points="12,210 44,210" />
		<polyline points="12,218 44,218" />
		<text x="50" y="218">
			<tspan>C1 (capacitance)</tspan>
		</text>
	</g>
	<polyline points="28,185 110,185" />
	<g id="GPIO" transform="translate(94, 155)">
		<circle cx="20" cy="30" r="4" />
		<text x="0" y="20">
			<tspan>GPIO</tspan>
		</text>
	</g>
	<polyline points="28,218 28,238 110,238" />
	<g id="GND" transform="translate(94, 208)">
		<circle cx="20" cy="30" r="4" />
		<text x="0" y="50">
			<tspan>GND</tspan>
		</text>
	</g>
</svg>
